<mxfile host="app.diagrams.net" modified="2024-02-27T04:06:56.435Z" agent="Mozilla/5.0 (Windows NT 10.0; Win64; x64) AppleWebKit/537.36 (KHTML, like Gecko) Chrome/120.0.0.0 Safari/537.36" version="23.1.7" etag="FSmOBYT8gsBDXeKEJxEx" type="github">
  <diagram name="Trang-1" id="Nz2fhPlEXzDL5K-OaQu3">
    <mxGraphModel>
      <root>
        <mxCell id="0" />
        <mxCell id="1" parent="0" />
      </root>
    </mxGraphModel>
  </diagram>
</mxfile>
